<?xml version="1.0" encoding="utf-8"?>
<!-- Generator: Adobe Illustrator 26.0.1, SVG Export Plug-In . SVG Version: 6.00 Build 0)  -->
<svg version="1.1" id="Layer_1" xmlns="http://www.w3.org/2000/svg" xmlns:xlink="http://www.w3.org/1999/xlink" x="0px" y="0px"
	 viewBox="0 0 612 792" style="enable-background:new 0 0 612 792;" xml:space="preserve">
<style type="text/css">
	.st0{display:none;fill:none;stroke:#BE1E2D;stroke-miterlimit:10;}
	.st1{fill:#FFFFFF;}
	.st2{display:none;}
</style>
<g id="Layer_2">
	<path class="st0" d="M424,220"/>
	<circle cx="309" cy="407" r="223.25"/>
	<path class="st1" d="M221.39,292.35c-11.47,16.49-11.07,43.76,0,54.66c11.62,11.45,26.64-3.37,42,4.56
		c32.97,17.02,34.72,122.02,10,133.24c-19.9,9.04-47.7-46.95-63-37.58c-12.84,7.86-12.38,58.98,13,84.27
		c21.51,21.44,57.92,21.34,79,3.42c30.74-26.14,20.83-83.86,1-199.29c-2.97-17.29-7.22-38.57-23-50.11
		C264.24,273.71,235.64,271.86,221.39,292.35z"/>
	<path class="st1" d="M314.26,281.74c16.64-18.18,55.91-17.49,79,1c2.87,2.3,21.98,18.08,18,32c-5.23,18.31-43.12,8.01-57,27
		c-25.19,34.46,67.23,112.67,41,169c-9.26,19.89-32.53,35.37-48,31c-24.9-7.03-11.24-60.29-35-191
		C306.38,318.37,300.93,296.31,314.26,281.74z"/>
	<path class="st2" d="M479,382"/>
</g>
</svg>
